<?xml version="1.0" encoding="utf-8"?>
<!-- Generator: Adobe Illustrator 14.0.0, SVG Export Plug-In . SVG Version: 6.00 Build 43363)  -->
<svg version="1.2" baseProfile="tiny" id="Layer_1" xmlns="http://www.w3.org/2000/svg" xmlns:xlink="http://www.w3.org/1999/xlink"
	 x="0px" y="0px" width="178px" height="12px" viewBox="0 0 178 12" xml:space="preserve">
<g>
	<path fill="#848484" d="M149.679,1.02h0.388l0.581,0.388l1.163-0.194c0.646,0.194,0.97,0.646,0.97,1.357l-0.194,0.969l0.388,0.388
		v0.969l-0.388,0.388h-0.388c-0.323,0-0.517-0.259-0.581-0.775h-0.194c-0.162,0-0.42,0.582-0.775,1.745h-0.388
		c-0.517-0.388-1.356-0.711-2.52-0.969V5.091l0.193-0.194l-0.193-0.194h-0.194l-0.775,0.194V4.703l-0.193,0.194h-0.194l-0.193-0.194
		h-0.194l-0.193,0.194h-0.194l-0.193-0.194l-0.97,0.194h-5.815l-0.775-0.194l-0.194,0.194h-0.193l-0.194-0.194h-0.193l-0.194,0.194
		h-0.193l-1.164-0.388l-0.775,0.194l-0.193-0.194h-0.194l-0.193,0.194l-0.97-0.194h-0.193l-0.97,0.194l-1.163-0.194l-0.775,0.194
		l-0.775-0.194h-0.193l-0.775,0.194l-0.194-0.194h-0.193l-0.194,0.194h-0.194l-0.193-0.194l-0.97,0.194h-3.102l-0.775,0.194
		l-0.581-0.388l-0.194,0.194h-0.193l-0.194-0.194h-0.193l-0.194,0.194h-0.193L120.6,4.509l-0.969,0.194h-5.041l-0.775,0.194
		l-0.775-0.194l-5.622,0.194V4.703l-0.193,0.194h-5.429l-2.907,0.194V4.897l-0.194,0.194H97.53l-5.815,0.194V5.091l-0.194,0.194
		h-0.388l-0.193-0.194l-0.194,0.194h-0.388l-0.193-0.194c-0.711,0.258-1.745,0.388-3.102,0.388V5.285l-0.194,0.194h-0.775
		l-8.53,0.533l-0.436,0.824L76.4,6.206l0.775-0.194L59.146,6.835l-0.582,0.194V6.835l-0.194,0.194h-0.388L57.79,6.835
		c-0.582,0.258-3.812,0.516-9.693,0.776l-0.194,0.193L46.74,7.611l-2.714,0.387l-1.745-0.193l-0.582,0.193V7.805l-1.938,0.388
		l-1.357-0.194l-0.582,0.194V7.998c-0.71,0.259-1.615,0.389-2.714,0.389L34.72,7.998l-0.388,0.389l-0.582-0.194L33.363,8.58h-0.388
		l-1.163-0.193L31.037,8.58l-0.194-0.193l-0.388,0.387h-1.551L28.711,8.58l-2.714,0.582l-0.388-0.389
		c-0.549,0.389-1.195,0.582-1.938,0.582l-0.388-0.388c-0.646,0.355-2.003,0.614-4.071,0.776V9.549l-0.194,0.195h-1.745l-1.357,0.193
		v0.193h0.388v0.194l-0.775,0.194l-0.194-0.194v-0.194l0.194-0.193h-0.775l-1.357,0.193l0.194,0.194v0.194l-0.194,0.193h-3.49
		l-0.388-0.388v-0.194l-0.194,0.194H6.029v0.194h1.745v0.193l-3.683,0.388l-0.582-0.194l-1.163,0.194H1.765
		c-0.388,0-0.582-0.388-0.582-1.163H0.407V8.773c0-0.258,0.388-0.387,1.163-0.387V8.192H0.795V7.805l1.939-0.582l2.52,0.775
		l0.194-0.193C6.353,7.902,6.805,8.03,6.805,8.192l0.194-0.194h0.388L7.58,8.192l0.194-0.194h0.194l0.388,0.389V8.58H7.774v0.193
		h0.775l13.764-0.581l1.163,0.194l0.388-0.389l1.938,0.194c0-0.259,0.194-0.388,0.582-0.388l2.521,0.193
		c0-0.258,0.194-0.387,0.582-0.387c1.292,0,1.938,0.129,1.938,0.387l1.163-0.581c1.292,0.064,1.938,0.194,1.938,0.388l0.775-0.582
		l1.939,0.194h1.163c0.646,0,0.969-0.13,0.969-0.388l2.326,0.193h1.163c0.647,0,0.969-0.129,0.969-0.387l0.969,0.194h1.939
		c0.646,0,0.969-0.129,0.969-0.388l0.775,0.194c29.789-1.68,48.723-2.52,56.801-2.52l0.581-0.194l0.194,0.194l0.969-0.194h12.989
		l0.775-0.194l0.193,0.194l2.908-0.194h9.305l0.194,0.194l0.193-0.194h2.326l0.582-0.388h0.194l0.193,0.194l0.194-0.194h0.581
		l0.194,0.194l0.193-0.194h6.397l1.357-0.194V3.54l0.193-0.194h1.745l0.969-0.194V2.958c-0.517,0-0.775-0.194-0.775-0.582V1.795
		C148.095,1.278,148.677,1.02,149.679,1.02z M10.1,10.131v0.194h2.714v-0.194l-1.938-0.193L10.1,10.131z M144.057,5.091h0.581v0.388
		h-0.581V5.091z"/>
	<path fill="#848484" d="M174.299,1.02h0.388l0.581,0.388l1.163-0.194c0.646,0.194,0.97,0.646,0.97,1.357l-0.194,0.969l0.388,0.388
		v0.969l-0.388,0.388h-0.388c-0.323,0-0.517-0.259-0.581-0.775h-0.194c-0.162,0-0.42,0.582-0.775,1.745h-0.388
		c-0.517-0.388-1.356-0.711-2.52-0.969V5.091l0.193-0.194l-0.193-0.194h-0.194l-0.775,0.194V4.703l-0.193,0.194h-0.194l-0.193-0.194
		h-0.194l-0.193,0.194h-0.194l-0.193-0.194l-0.97,0.194h-5.815l-0.775-0.194l-0.194,0.194h-0.193l-0.194-0.194h-0.193l-0.194,0.194
		h-0.193l-1.164-0.388l-0.775,0.194l-0.193-0.194h-0.194l-0.193,0.194l-0.97-0.194h-0.193l-0.97,0.194l-1.163-0.194l-0.775,0.194
		l-0.775-0.194h-0.193l-0.775,0.194l-0.194-0.194h-0.193l-0.194,0.194h-0.194l-0.193-0.194l-0.97,0.194h-3.102l-0.775,0.194
		l-0.581-0.388l-0.194,0.194h-0.193l-0.194-0.194h-0.193l-0.194,0.194h-0.193l-0.194-0.194l-0.969,0.194h-5.041l-0.775,0.194
		l-0.775-0.194l-5.622,0.194V4.703l-0.193,0.194h-5.429l-2.907,0.194V4.897l-0.194,0.194h-1.163l-5.815,0.194V5.091l-0.194,0.194
		h-0.388l-0.193-0.194l-0.194,0.194h-0.388l-0.193-0.194c-0.711,0.258-1.745,0.388-3.102,0.388V5.285l-0.194,0.194h-0.775
		l-8.529,0.533l-0.437,0.824l-0.727-0.63l0.775-0.194L83.767,6.835l-0.582,0.194V6.835l-0.194,0.194h-0.388L82.41,6.835
		c-0.582,0.258-3.812,0.516-9.693,0.776l-0.194,0.193L71.36,7.611l-2.714,0.387l-1.745-0.193l-0.582,0.193V7.805l-1.938,0.388
		l-1.357-0.194l-0.582,0.194V7.998c-0.71,0.259-1.615,0.389-2.714,0.389L59.34,7.998l-0.388,0.389l-0.582-0.194L57.983,8.58h-0.388
		l-1.163-0.193L55.657,8.58l-0.194-0.193l-0.388,0.387h-1.551L53.331,8.58l-2.714,0.582l-0.388-0.389
		c-0.549,0.389-1.195,0.582-1.938,0.582l-0.388-0.388c-0.646,0.355-2.003,0.614-4.071,0.776V9.549l-0.194,0.195h-1.745l-1.357,0.193
		v0.193h0.388v0.194l-0.775,0.194l-0.194-0.194v-0.194l0.194-0.193h-0.775l-1.357,0.193l0.194,0.194v0.194l-0.194,0.193h-3.49
		l-0.388-0.388v-0.194l-0.194,0.194h-3.295v0.194h1.745v0.193l-3.683,0.388l-0.582-0.194l-1.163,0.194h-0.582
		c-0.388,0-0.582-0.388-0.582-1.163h-0.775V8.773c0-0.258,0.388-0.387,1.163-0.387V8.192h-0.775V7.805l1.939-0.582l2.52,0.775
		l0.194-0.193c0.905,0.098,1.357,0.226,1.357,0.388l0.194-0.194h0.388L32.2,8.192l0.194-0.194h0.194l0.388,0.389V8.58h-0.582v0.193
		h0.775l13.764-0.581l1.163,0.194l0.388-0.389l1.938,0.194c0-0.259,0.194-0.388,0.582-0.388l2.521,0.193
		c0-0.258,0.194-0.387,0.582-0.387c1.292,0,1.938,0.129,1.938,0.387l1.163-0.581c1.292,0.064,1.938,0.194,1.938,0.388l0.775-0.582
		l1.939,0.194h1.163c0.646,0,0.969-0.13,0.969-0.388l2.326,0.193h1.163c0.647,0,0.969-0.129,0.969-0.387l0.969,0.194h1.939
		c0.646,0,0.969-0.129,0.969-0.388l0.775,0.194c29.789-1.68,48.723-2.52,56.801-2.52l0.581-0.194l0.194,0.194l0.969-0.194h12.989
		l0.775-0.194l0.193,0.194l2.908-0.194h9.305l0.194,0.194l0.193-0.194h2.326l0.582-0.388h0.194l0.193,0.194l0.194-0.194h0.581
		l0.194,0.194l0.193-0.194h6.397l1.357-0.194V3.54l0.193-0.194h1.745l0.969-0.194V2.958c-0.517,0-0.775-0.194-0.775-0.582V1.795
		C172.715,1.278,173.297,1.02,174.299,1.02z M34.72,10.131v0.194h2.714v-0.194l-1.938-0.193L34.72,10.131z M168.677,5.091h0.581
		v0.388h-0.581V5.091z"/>
</g>
</svg>
