<?xml version="1.0" encoding="UTF-8" standalone="no"?>
<svg width="100px" height="100px" viewBox="0 0 100 100" version="1.1" xmlns="http://www.w3.org/2000/svg" xmlns:xlink="http://www.w3.org/1999/xlink" xmlns:sketch="http://www.bohemiancoding.com/sketch/ns">
    <title>Artboard 1</title>
    <description>Created with Sketch (http://www.bohemiancoding.com/sketch)</description>
    <defs>
        <path id="path-1" d="M3,5.041 L97.995,5.041 L97.995,95.94 L3,95.94 L3,5.041 Z"></path>
        <mask id="mask-2" sketch:name="Clip 2" fill="white">
            <use xlink:href="#path-1"></use>
        </mask>
    </defs>
    <g id="Page-1" stroke="none" stroke-width="1" fill="none" fill-rule="evenodd" sketch:type="MSPage">
        <g id="Artboard-1" sketch:type="MSArtboardGroup">
            <g id="Untitled-1" sketch:type="MSLayerGroup">
                <g id="Clip-2"></g>
                <path d="M69.257026,62.144621 L66.0789098,64.0077477 C66.0789098,64.0077477 68.1440103,71.1891562 70.4872297,74.2414438 C71.7746773,75.9187979 74.0665932,74.5654658 74.0665932,74.5654658 C74.0665932,74.5654658 76.2672429,73.0927857 75.2795157,71.2588209 C71.8875449,64.9619926 69.257026,62.144621 69.257026,62.144621 Z M40.7096042,43.1747506 L28.6721854,63.6124408 L33.8473575,67.1691227 L46.1661354,46.7314326 L40.7096042,43.1747506 Z M45.6622811,50.2886545 L39.6306108,60.2247904 L62.2354684,60.1967085 L56.2912841,50.2600326 L45.6622811,50.2886545 Z M25.9720018,74.3958943 L33.1723115,68.4112072 L28.0533033,64.8545253 L25.9720018,74.3958943 Z M65.7413869,54.9178494 L61.8882248,57.176283 L65.375782,63.0481024 L68.7510116,60.9587003 L65.7413869,54.9178494 Z M34.8631666,50.3448184 L24.8471053,50.2886545 L24.8751872,60.2534123 L28.974606,60.2534123 L34.8631666,50.3448184 Z M61.4410744,56.3845892 L65.3444599,54.1013139 C65.3444599,54.1013139 57.6267949,38.8587771 52.6530566,31.0973691 C48.7988145,25.0829801 47.572391,26.0118432 47.572391,26.0118432 C47.572391,26.0118432 46.115912,26.1544129 49.350192,33.417367 C56.4419543,49.3408901 61.4410744,56.3845892 61.4410744,56.3845892 Z M76.1478947,60.1686266 L76.1198128,50.2886545 L64.8892089,50.3167364 L69.6750145,60.1967085 L76.1478947,60.1686266 Z M49.5975288,40.916317 L44.3100291,37.416339 L41.1599949,42.4408407 L46.5036583,45.9975227 L49.5975288,40.916317 Z M50.4637477,37.666376 C50.306597,36.7358927 48.9786467,35.7789476 48.9786467,35.7789476 C48.9786467,35.7789476 47.8148675,35.006155 46.7914979,35.0785199 C45.4241249,35.1751865 44.6475521,36.7952967 44.6475521,36.7952967 L49.8227241,40.1824071 C49.8227241,40.1824071 50.6430399,38.7307884 50.4637477,37.666376 Z" id="Fill-1" fill="#D7D7D7" sketch:type="MSShapeGroup" mask="url(#mask-2)"></path>
            </g>
        </g>
    </g>
</svg>