<?xml version="1.0" encoding="UTF-8" standalone="no"?>
<svg width="16px" height="16px" viewBox="0 0 16 16" version="1.1" xmlns="http://www.w3.org/2000/svg" xmlns:xlink="http://www.w3.org/1999/xlink" xmlns:sketch="http://www.bohemiancoding.com/sketch/ns">
    <title>Artboard 1</title>
    <description>Created with Sketch (http://www.bohemiancoding.com/sketch)</description>
    <defs></defs>
    <g id="Page-1" stroke="none" stroke-width="1" fill="none" fill-rule="evenodd" sketch:type="MSPage">
        <g id="Artboard-1" sketch:type="MSArtboardGroup" fill="#F40D06">
            <path d="M8,16 C12.4182782,16 16,12.4182782 16,8 C16,3.58172178 12.4182782,0 8,0 C3.58172178,0 0,3.58172178 0,8 C0,12.4182782 3.58172178,16 8,16 Z M6,4.22758904 C6,4.22758904 6.94242518,6.99999985 7.90814953,7 C8.87387387,7.00000021 9.99999999,4.5970996 10,4.41234432 C10,4.22758904 9.96758828,3.06270048 8.9378689,3.06270048 C7.90814953,3.06270048 7.05747127,2.90466333 6.52873563,3.09039214 C6,3.27612096 6,4.22758904 6,4.22758904 Z M3.42901933,8.45898541 C3.42901933,8.45898541 6.33397767,8.82728418 6.7573235,7.95929695 C7.18066937,7.09130975 5.51461781,5.025792 5.34856087,4.94480061 C5.18250392,4.86380923 4.12130066,4.38228716 3.66990139,5.3077928 C3.21850213,6.23329844 2.70354647,6.92860407 2.63869598,7.48524667 C2.57384549,8.04188926 3.42901933,8.45898541 3.42901933,8.45898541 Z M6.96944583,12.9122744 C6.96944583,12.9122744 8.12419236,10.2213661 7.40651942,9.57517031 C6.68884651,8.92897444 4.24411737,9.96115214 4.12049195,10.0984521 C3.99686653,10.235752 3.24149055,11.1231206 4.00672118,11.8121373 C4.7719518,12.5011541 5.29838145,13.1878134 5.81558544,13.4035832 C6.33278942,13.619353 6.96944583,12.9122744 6.96944583,12.9122744 Z M11.9289023,10.0640756 C11.9289023,10.0640756 9.258557,8.86254213 8.59993447,9.5688281 C7.94131189,10.275114 8.93066598,12.7374848 9.06578744,12.8634876 C9.2009089,12.9894904 10.0749592,13.7602381 10.7772261,13.007149 C11.479493,12.2540599 12.1752353,11.7396943 12.3999987,11.2263348 C12.624762,10.7129753 11.9289023,10.0640756 11.9289023,10.0640756 Z M10.9295458,4.85718529 C10.9295458,4.85718529 8.74576303,6.80795945 9.12310145,7.69691345 C9.50043982,8.58586748 12.152334,8.68358398 12.3224022,8.61139434 C12.4924703,8.5392047 13.5520916,8.05421133 13.1497482,7.10634965 C12.7474048,6.15848797 12.5604923,5.31368446 12.1829345,4.89955077 C11.8053768,4.48541709 10.9295458,4.85718529 10.9295458,4.85718529 Z" id="Pod-cog" sketch:type="MSShapeGroup"></path>
        </g>
    </g>
</svg>