<?xml version="1.0" encoding="UTF-8" standalone="no"?>
<svg width="100px" height="100px" viewBox="0 0 100 100" version="1.1" xmlns="http://www.w3.org/2000/svg" xmlns:xlink="http://www.w3.org/1999/xlink" xmlns:sketch="http://www.bohemiancoding.com/sketch/ns">
    <!-- Generator: Sketch 3.0.4 (8053) - http://www.bohemiancoding.com/sketch -->
    <title>CarPlay</title>
    <desc>Created with Sketch.</desc>
    <defs>
        <linearGradient x1="50%" y1="0%" x2="50%" y2="100%" id="linearGradient-1">
            <stop stop-color="#FFFFFF" offset="0%"></stop>
            <stop stop-color="#EDFBF0" offset="100%"></stop>
        </linearGradient>
    </defs>
    <g id="Page-1" stroke="none" stroke-width="1" fill="none" fill-rule="evenodd" sketch:type="MSPage">
        <g id="CarPlay" sketch:type="MSArtboardGroup">
            <rect id="Background" fill="url(#linearGradient-1)" sketch:type="MSShapeGroup" x="0" y="0" width="100" height="100"></rect>
            <path d="M50.4341559,9.15943107 L50.4325898,8.93230091 L50.4341559,9.15943107 C50.2222188,9.61817076 47.4769546,13.8954374 42.9349232,13.8954374 C38.1235332,13.8954374 34.3600835,12.0486215 29.3195301,15.684285 C24.2774106,19.3194215 25.3222188,25.7230692 25.3222188,25.7230692 C25.3222188,25.7230692 22.1924923,25.0869993 18.6013068,26.8745295 C15.0090773,28.6646946 13.1551496,32.9917612 13.1551496,35.6445993 C13.1551496,38.2982279 13.6181747,39.3951454 13.6181747,41.8761866 C13.6181747,44.3538025 12.6939515,48.7891644 8.93807096,50.5809104 C8.93807096,50.5809104 8.92997977,50.5848628 8.93311184,50.5848628 C8.92971876,50.5848628 8.93807096,50.5901327 8.93807096,50.5901327 C12.6936905,52.3818787 13.6181747,56.8153962 13.6181747,59.29512 C13.6181747,61.7753708 13.1551496,62.8707073 13.1551496,65.5259168 C13.1551496,68.1758565 15.0090773,72.506085 18.6013068,74.2959866 C22.1924923,76.0840438 25.3222188,75.4471835 25.3222188,75.4471835 C25.3222188,75.4471835 24.2774106,81.8510946 29.3195301,85.4862311 C34.3598225,89.1203136 38.1235332,87.2758692 42.9349232,87.2758692 C47.4766936,87.2758692 50.1522691,91.5418057 50.4341559,92.0058152 L50.4341559,92.012139 L50.4341559,92.0084501 C50.4341559,92.0084501 50.4354609,92.0084501 50.4354609,92.012139 L50.4354609,92.0058152 C50.7142156,91.5418057 53.387181,87.2758692 57.9333886,87.2758692 C62.7419074,87.2758692 66.5048351,89.1205771 71.5474766,85.4862311 C76.5872471,81.8510946 75.545832,75.4471835 75.545832,75.4471835 C75.545832,75.4471835 78.6719043,76.0837803 82.2630898,74.2959866 C85.8561024,72.506085 87.7089861,68.1758565 87.7089861,65.5259168 C87.7089861,62.8709708 87.2470049,61.7753708 87.2470049,59.29512 C87.2470049,56.8153962 88.1727942,52.3816152 91.9260647,50.5901327 C91.9260647,50.5901327 91.9351999,50.5848628 91.9315458,50.5848628 C91.9351999,50.5848628 91.9260647,50.5793295 91.9260647,50.5793295 C88.1727942,48.7891644 87.2470049,44.3538025 87.2470049,41.8761866 C87.2470049,39.3951454 87.7089861,38.2979644 87.7089861,35.6445993 C87.7089861,32.9920247 85.8561024,28.6646946 82.2630898,26.8745295 C78.6719043,25.0867358 75.545832,25.7230692 75.545832,25.7230692 C75.545832,25.7230692 76.5869861,19.3194215 71.5474766,15.684285 C66.5045741,12.0486215 62.7416464,13.8954374 57.9333886,13.8954374 C53.387181,13.8954374 50.8053068,9.58865964 50.4354609,9.15943107" id="Outer" fill="#53D769" sketch:type="MSShapeGroup"></path>
            <path d="M50.4367832,14.1317657 L50.4352517,13.9323009 L50.4367832,14.1317657 C50.2504545,14.5345509 47.8355839,18.2891671 43.840493,18.2891671 C39.6085349,18.2891671 36.2980105,16.6680016 31.8646643,19.8594382 C27.4297867,23.0503608 28.3486678,28.6718749 28.3486678,28.6718749 C28.3486678,28.6718749 25.5958531,28.113322 22.4371993,29.682822 C19.2775245,31.2543784 17.6467657,35.0529488 17.6467657,37.3812375 C17.6467657,39.7105544 18.0538811,40.6736918 18.0538811,42.8516108 C18.0538811,45.0267023 17.2409265,48.9201213 13.9372937,50.4929629 C13.9372937,50.4929629 13.9301468,50.4965615 13.9329545,50.4965615 C13.9301468,50.4965615 13.9372937,50.5011882 13.9372937,50.5011882 C17.2406713,52.0740298 18.0538811,55.9659065 18.0538811,58.1427974 C18.0538811,60.3199453 17.6467657,61.2815404 17.6467657,63.6123995 C17.6467657,65.9383749 19.2775245,69.7397727 22.4371993,71.310815 C25.5958531,72.880315 28.3486678,72.3215051 28.3486678,72.3215051 C28.3486678,72.3215051 27.4297867,77.9432763 31.8646643,81.1341988 C36.2980105,84.3243502 39.6085349,82.7052411 43.840493,82.7052411 C47.8355839,82.7052411 50.1889405,86.4500896 50.4367832,86.8575016 L50.4367832,86.8631565 L50.4367832,86.860072 C50.4367832,86.860072 50.4378042,86.860072 50.4378042,86.8631565 L50.4378042,86.8575016 C50.6828391,86.4500896 53.0341538,82.7052411 57.0328182,82.7052411 C61.2622238,82.7052411 64.5719825,84.3246073 69.0076258,81.1341988 C73.4404615,77.9432763 72.5246433,72.3215051 72.5246433,72.3215051 C72.5246433,72.3215051 75.2743951,72.880315 78.4330489,71.310815 C81.5932342,69.7397727 83.2232272,65.9383749 83.2232272,63.6123995 C83.2232272,61.2817974 82.8168776,60.3199453 82.8168776,58.1427974 C82.8168776,55.9659065 83.6311084,52.0740298 86.932444,50.5011882 C86.932444,50.5011882 86.9403566,50.4965615 86.9372937,50.4965615 C86.9406119,50.4965615 86.932444,50.4916777 86.932444,50.4916777 C83.6311084,48.9203784 82.8168776,45.0267023 82.8168776,42.8516108 C82.8168776,40.6736918 83.2232272,39.7105544 83.2232272,37.3812375 C83.2232272,35.0526918 81.5934895,31.2541213 78.4330489,29.682822 C75.2743951,28.1135791 72.5246433,28.6718749 72.5246433,28.6718749 C72.5246433,28.6718749 73.4404615,23.0503608 69.0076258,19.8594382 C64.5719825,16.6680016 61.2622238,18.2891671 57.0328182,18.2891671 C53.0341538,18.2891671 50.762986,14.5085896 50.4378042,14.1317657" id="Middle" fill="#FFFFFF" sketch:type="MSShapeGroup"></path>
            <path d="M49.9786936,18.1750894 L49.9774032,18 L49.9786936,18.1750894 C49.8153387,18.5283902 47.6999839,21.8225691 44.200371,21.8225691 C40.4930161,21.8225691 37.5928871,20.4002602 33.7090161,23.2001301 C29.8238549,25.9994797 30.6290161,30.931122 30.6290161,30.931122 C30.6290161,30.931122 28.2174032,30.4412358 25.4504355,31.8180163 C22.6824355,33.1966179 21.2537903,36.5290407 21.2537903,38.5718374 C21.2537903,40.6154146 21.6104355,41.4601626 21.6104355,43.3707967 C21.6104355,45.2788293 20.8981774,48.6947642 18.004242,50.0744065 C18.004242,50.0744065 17.9980484,50.0775285 18.0006291,50.0775285 C17.9980484,50.0775285 18.004242,50.0814309 18.004242,50.0814309 C20.8981774,51.4610732 21.6104355,54.8754472 21.6104355,56.7853008 C21.6104355,58.6954146 21.2537903,59.5388618 21.2537903,61.5837398 C21.2537903,63.6244553 22.6821774,66.9592195 25.4504355,68.337561 C28.2176613,69.7146016 30.6290161,69.2241951 30.6290161,69.2241951 C30.6290161,69.2241951 29.8238549,74.1560976 33.7090161,76.9554472 C37.5928871,79.7542764 40.4927581,78.3335285 44.200371,78.3335285 C47.6999839,78.3335285 49.7616613,81.6188618 49.9786936,81.976065 L49.9786936,81.9810081 L49.9786936,81.9781463 C49.9786936,81.9781463 49.9797258,81.9781463 49.9797258,81.9810081 L49.9797258,81.976065 C50.1944355,81.6186016 52.2543065,78.3335285 55.7572742,78.3335285 C59.4623065,78.3335285 62.3619194,79.7540163 66.2475968,76.9554472 C70.1309516,74.1560976 69.3286291,69.2241951 69.3286291,69.2241951 C69.3286291,69.2241951 71.7374032,69.7146016 74.5046291,68.337561 C77.2731452,66.9592195 78.7010161,63.6244553 78.7010161,61.5837398 C78.7010161,59.539122 78.3448871,58.6954146 78.3448871,56.7853008 C78.3448871,54.8754472 79.0581774,51.4610732 81.9503065,50.0814309 C81.9503065,50.0814309 81.9572742,50.0775285 81.9544355,50.0775285 C81.9572742,50.0775285 81.9503065,50.0733659 81.9503065,50.0733659 C79.0581774,48.6947642 78.3448871,45.2790894 78.3448871,43.3707967 C78.3448871,41.4601626 78.7010161,40.6151545 78.7010161,38.5718374 C78.7010161,36.5290407 77.2731452,33.1966179 74.5046291,31.8180163 C71.7374032,30.4412358 69.3286291,30.931122 69.3286291,30.931122 C69.3286291,30.931122 70.1309516,25.9994797 66.2475968,23.2001301 C62.3619194,20.4002602 59.4623065,21.8225691 55.7572742,21.8225691 C52.2543065,21.8225691 50.2646291,18.5060163 49.9797258,18.1750894" id="Inner" fill="#53D769" sketch:type="MSShapeGroup"></path>
            <path d="M65.6472368,56.7226191 C59.9704346,56.7226191 57.1696832,54.5220983 57.1696832,50.3393483 C57.1696832,45.8302441 60.3926097,43.7079941 65.6472368,43.7079941 C71.0937114,43.7079941 74.1366945,45.8302441 74.1366945,50.2302025 C74.1366945,54.2750983 71.4004459,56.7226191 65.6472368,56.7226191 L65.6472368,56.7226191 Z M65.6472368,44.3268483 C64.7264798,44.3268483 64.3051351,45.8302441 64.3051351,50.3241816 C64.3051351,54.9413483 64.6749882,56.1029525 65.6472368,56.1029525 C66.5679939,56.1029525 66.9893385,54.6469525 66.9893385,50.3241816 C66.9893385,45.5355775 66.6194854,44.3268483 65.6472368,44.3268483 L65.6472368,44.3268483 Z M48.1941012,56.7226191 C42.517299,56.7226191 39.7165476,54.5220983 39.7165476,50.3393483 C39.7165476,45.8302441 42.9394741,43.7079941 48.1941012,43.7079941 C53.6405758,43.7079941 56.6835589,45.8302441 56.6835589,50.2302025 C56.6835589,54.2750983 53.9473103,56.7226191 48.1941012,56.7226191 L48.1941012,56.7226191 Z M48.1941012,44.3268483 C47.2733442,44.3268483 46.8519995,45.8302441 46.8519995,50.3241816 C46.8519995,54.9413483 47.2218526,56.1029525 48.1941012,56.1029525 C49.1148583,56.1029525 49.5359261,54.6469525 49.5359261,50.3241816 C49.5359261,45.5355775 49.166073,44.3268483 48.1941012,44.3268483 L48.1941012,44.3268483 Z M33.584073,56.3819108 C31.3331182,56.3819108 27.4208696,56.4590983 25.1710221,56.4590983 L25.1710221,55.7928483 C28.37983,55.7928483 29.7227623,54.2585775 29.7227623,51.2837441 L29.7227623,48.216015 C28.5979769,48.5104108 26.8719035,48.5258483 25.8614515,48.5258483 L25.8614515,47.7515358 C29.8503837,47.7515358 30.9499769,46.3572858 31.8710108,43.9704316 C32.6893385,43.9704316 34.1075702,44.0487025 34.9258978,44.0487025 C35.7442255,44.0487025 37.1638413,43.9704316 37.9818922,43.9704316 C37.9818922,43.9704316 37.5857397,46.155515 37.5857397,49.7502858 C37.5857397,53.2204733 38.5829035,55.7925775 41.996847,55.7925775 L41.996847,56.4588275 C39.746169,56.4590983 35.8336436,56.3819108 33.584073,56.3819108 L33.584073,56.3819108 Z" id="100" fill="#FFFFFF" sketch:type="MSShapeGroup"></path>
        </g>
    </g>
</svg>