<?xml version="1.0" encoding="UTF-8" standalone="no"?>
<svg width="100px" height="100px" viewBox="0 0 100 100" version="1.1" xmlns="http://www.w3.org/2000/svg" xmlns:xlink="http://www.w3.org/1999/xlink" xmlns:sketch="http://www.bohemiancoding.com/sketch/ns">
    <!-- Generator: Sketch 3.0.4 (8053) - http://www.bohemiancoding.com/sketch -->
    <title>Artboard 1</title>
    <desc>Created with Sketch.</desc>
    <defs></defs>
    <g id="Page-1" stroke="none" stroke-width="1" fill="none" fill-rule="evenodd" sketch:type="MSPage">
        <g id="Artboard-1" sketch:type="MSArtboardGroup">
            <g id="Imported-Layers" sketch:type="MSLayerGroup">
                <path d="M-0.0177094972,-0.00418994413 L99.9822346,-0.00418994413 L99.9822346,99.9958659 L-0.0177094972,99.9958659 L-0.0177094972,-0.00418994413 Z" id="Fill-1" fill="#FF352C" sketch:type="MSShapeGroup"></path>
                <path d="M57.1431844,81.2458101 L81.2322346,81.2458101 L81.2322346,44.3055307 L50.7175978,74.8202235 L57.1431844,81.2458101" id="Fill-2" fill="#FFFFFF" sketch:type="MSShapeGroup"></path>
                <path d="M81.2322346,42.782067 L81.2322346,18.7458659 L44.361676,18.7458659 L74.8150279,49.1992737 L81.2322346,42.782067" id="Fill-3" fill="#FFFFFF" sketch:type="MSShapeGroup"></path>
                <path d="M42.825419,18.7458659 L18.7322905,18.7458659 L18.7322905,55.6821229 L49.2469832,25.1674302 L42.825419,18.7458659" id="Fill-4" fill="#FFFFFF" sketch:type="MSShapeGroup"></path>
                <path d="M18.7322905,57.2251955 L18.7322905,81.2458101 L55.6184358,81.2458101 L25.1650279,50.7924022 L18.7322905,57.2251955" id="Fill-5" fill="#FFFFFF" sketch:type="MSShapeGroup"></path>
                <path d="M44.361676,18.7458659 L81.2322905,18.7458659 L81.2322905,42.776648 L99.9822905,24.0265922 L99.9822905,-0.00413407821 L52.5535754,-0.00413407821 L39.0798883,13.4695531" id="Fill-6" fill="#FF624B" sketch:type="MSShapeGroup"></path>
                <path d="M50.9952514,-0.00413407821 L25.606257,-0.00413407821 L38.3007821,12.6903911 L50.9952514,-0.00413407821" id="Fill-7" fill="#FF5B48" sketch:type="MSShapeGroup"></path>
                <path d="M61.6637989,87.3013408 L48.9692737,99.9958659 L74.3583799,99.9958659 L61.6637989,87.3013408" id="Fill-8" fill="#FF352C" sketch:type="MSShapeGroup"></path>
                <path d="M18.7322905,57.2251955 L-0.0177094972,75.9651397 L-0.0177094972,99.9958659 L47.4110056,99.9958659 L60.8846927,86.5222346 L55.608324,81.2458101 L18.7322905,81.2458101 L18.7322905,57.2251955" id="Fill-9" fill="#FF352C" sketch:type="MSShapeGroup"></path>
                <path d="M18.7322905,55.6218994 L18.7322905,18.7458659 L42.7630726,18.7458659 L24.0130726,-0.00413407821 L-0.0177094972,-0.00413407821 L-0.0177094972,47.424581 L13.4559218,60.8982123 L18.7322905,55.6218994" id="Fill-10" fill="#FF5043" sketch:type="MSShapeGroup"></path>
                <path d="M-0.0177094972,48.982905 L-0.0177094972,74.3718994 L12.6768156,61.6774302 L-0.0177094972,48.982905" id="Fill-11" fill="#FF5E49" sketch:type="MSShapeGroup"></path>
                <path d="M99.9822905,51.0088268 L99.9822905,25.6198324 L87.2877654,38.3143575 L99.9822905,51.0088268" id="Fill-12" fill="#FF5E49" sketch:type="MSShapeGroup"></path>
                <path d="M86.5086034,39.0934637 L81.2323464,44.3698324 L81.2323464,81.2458101 L57.2015084,81.2458101 L75.9515084,99.9958659 L99.9822905,99.9958659 L99.9822905,52.5671508 L86.5086034,39.0934637" id="Fill-13" fill="#FF352C" sketch:type="MSShapeGroup"></path>
                <path id="Fill-14" fill="#FFFFFF" sketch:type="MSShapeGroup" d="M81.2323464,81.2458101 L57.2015084,81.2458101 L81.2322346,81.2458101"></path>
            </g>
        </g>
    </g>
</svg>