<?xml version="1.0" standalone="no"?> <!DOCTYPE svg PUBLIC "-//W3C//DTD SVG 1.0//EN" "http://www.w3.org/TR/2001/REC-SVG-20010904/DTD/svg10.dtd" > <svg xmlns="http://www.w3.org/2000/svg" width="100%" height="100%">
<defs >
<font id="Nilland" horiz-adv-x="437" ><font-face
    font-family="Nilland"
    units-per-em="1000"
    panose-1="2 0 5 3 6 0 0 2 0 3"
    ascent="794"
    descent="-224"
    alphabetic="0" />
<missing-glyph horiz-adv-x="364" d="M33 0V666H298V0H33ZM66 33H265V633H66V33Z" />
<glyph unicode=" " glyph-name="space" horiz-adv-x="250" />
<glyph unicode="!" glyph-name="exclam" horiz-adv-x="250" d="M153 0H97V54H153V0ZM151 463L139 180H111L99 466V679H151V463Z" />
<glyph unicode="&quot;" glyph-name="quotedbl" horiz-adv-x="281" d="M91 585L77 460H49L35 586V690H91V585ZM247 585L233 460H205L191 586V690H247V585Z" />
<glyph unicode="#" glyph-name="numbersign" horiz-adv-x="668" d="M448 449H260L220 255H408L448 449ZM587 210H446L404 7H357L399 210H211L169 7H122L164 210H82V255H173L213 449H82V494H223L265 698H312L270 494H458L500 698H547L505 494H587V449H495L455 255H587V210Z"
/>
<glyph unicode="$" glyph-name="dollar" horiz-adv-x="510" d="M434 175Q434 231 395 269Q366 296 286 316V34Q346 38 387 73Q434 114 434 175ZM240 376V619Q189 615 154 587Q113 555 113 505Q113 447 150 416Q179 393 240 376ZM482 169Q482 93 419 41Q364 -3
286 -9V-85H240V-9Q150 -1 104 40L139 75Q171 43 240 35V324Q145 343 104 386Q60 433 60 505Q60 572 119 617Q169 655 240 662V690H286V662Q342 655 391 617Q449 572 453 464H405Q404 501 394 529T363 578Q332 609 286 618V367Q398 342 437 298Q482 248 482 169Z"
/>
<glyph unicode="%" glyph-name="percent" horiz-adv-x="844" d="M263 509Q263 580 240 621Q216 662 169 662T99 621Q75 580 75 508Q75 437 98 396Q122 355 169 355Q218 355 240 395Q263 436 263 509ZM677 679L199 0H165L635 667H246Q261 656 269 643Q303 597 303
509Q303 420 270 374Q237 327 169 327Q100 327 67 374Q33 420 33 509Q33 597 67 643Q102 690 168 690Q199 690 226 679H643H651H677ZM770 177Q770 249 747 290Q723 331 675 331Q629 331 606 290Q582 248 582 176T605 63Q629 23 676 23Q725 23 747 63Q770 104 770
177ZM810 177Q810 88 777 42Q744 -5 675 -5Q607 -5 574 42Q540 88 540 177Q540 265 574 311Q608 359 675 359Q743 359 776 312Q810 265 810 177Z" />
<glyph unicode="&amp;" glyph-name="ampersand" horiz-adv-x="698" d="M439 117L256 370Q186 345 148 305Q108 262 108 210Q108 137 158 89Q207 39 281 39Q327 39 368 60Q401 77 439 117ZM425 555Q425 595 393 621Q361 646 315 646Q273 646 240 622Q207 596 207
553Q207 525 237 480Q248 463 258 450L275 426Q308 437 334 449T380 476Q425 509 425 555ZM658 296H582Q566 232 544 187Q527 151 499 116L577 2L524 0L467 79Q428 35 383 15Q329 -10 274 -10Q168 -10 111 55Q52 122 52 200Q52 280 101 330Q148 379 230 407Q210
432 187 466Q157 511 157 549Q157 608 204 649Q253 690 317 690Q379 690 425 652Q471 613 471 554Q471 491 415 449Q364 411 301 389L471 155Q482 170 491 188T510 229Q521 256 529 284T543 341H658V296Z" />
<glyph unicode="&apos;" glyph-name="quotesingle" horiz-adv-x="219" d="M138 585L124 460H96L82 586V690H138V585Z" />
<glyph unicode="(" glyph-name="parenleft" horiz-adv-x="354" d="M329 -201Q205 -146 147 -31Q88 85 88 239T146 508T329 679V636Q226 575 185 479Q141 380 141 239Q141 99 184 -1Q227 -97 329 -158V-201Z" />
<glyph unicode=")" glyph-name="parenright" horiz-adv-x="354" d="M266 239Q266 86 208 -30Q149 -146 25 -201V-158Q128 -97 169 -1Q213 98 213 239Q213 379 170 479Q127 575 25 636V679Q149 624 207 509Q266 393 266 239Z" />
<glyph unicode="*" glyph-name="asterisk" horiz-adv-x="490" d="M451 507Q386 486 375 486Q366 486 339 481T263 466Q333 387 340 385Q347 384 391 323L343 287Q298 347 298 354T245 453Q192 361 192 355Q192 347 147 287L99 323Q143 383 149 385Q156 386 227
466Q179 476 153 481T118 486Q103 486 39 507L57 564Q127 541 133 536Q139 530 234 487Q223 590 219 598Q215 605 215 679H275Q275 605 271 598Q266 590 256 487Q351 530 357 536Q362 541 433 564L451 507Z" />
<glyph unicode="+" glyph-name="plus" horiz-adv-x="667" d="M595 300H355V58H311V300H71V344H311V583H355V344H595V300Z" />
<glyph unicode="," glyph-name="comma" horiz-adv-x="250" d="M153 -18Q153 -69 136 -97Q119 -124 88 -126V-90Q105 -90 113 -76Q121 -61 122 0H97V63H153V-18Z" />
<glyph unicode="-" glyph-name="hyphen" horiz-adv-x="344" d="M308 251H34V296H308V251Z" />
<glyph unicode="." glyph-name="period" horiz-adv-x="250" d="M158 0H102V64H158V0Z" />
<glyph unicode="/" glyph-name="slash" horiz-adv-x="281" d="M280 679L46 -18H0L234 679H280Z" />
<glyph unicode="0" glyph-name="zero" horiz-adv-x="531" d="M433 340Q433 481 392 565Q350 648 265 648T140 566Q98 483 98 340Q98 200 139 116Q181 33 266 33T391 115Q433 197 433 340ZM484 505T484 340T430 83T265 -9T101 83Q47 174 47 340T101 598T266 690T430
598Q484 505 484 340Z" />
<glyph unicode="1" glyph-name="one" horiz-adv-x="531" d="M392 0H148V45H244V624H148V659L296 679V45H392V0Z" />
<glyph unicode="2" glyph-name="two" horiz-adv-x="531" d="M460 161L454 0H55L54 14Q52 48 65 88Q78 126 103 173Q154 267 279 344Q338 381 369 417Q400 454 400 514Q400 571 363 610Q323 648 269 648Q192 648 155 600L124 631Q177 690 268 690Q351 690 401 642Q451
592 451 514Q451 450 422 406Q391 361 321 318Q211 250 164 184Q115 117 106 45H411L416 161H460Z" />
<glyph unicode="3" glyph-name="three" horiz-adv-x="531" d="M473 188Q473 101 413 46Q352 -9 258 -9Q169 -9 105 50L141 81Q187 33 260 33Q330 33 377 77Q423 120 423 189Q423 256 379 295Q333 336 261 335L217 334V373L235 375Q267 379 293 386T341 413Q383
452 383 516Q383 572 348 610Q312 648 254 648T162 612Q127 576 126 507H78Q81 594 129 642T257 690Q334 690 384 640T434 514Q434 459 407 422Q380 382 323 360Q392 349 432 305Q473 261 473 188Z" />
<glyph unicode="4" glyph-name="four" horiz-adv-x="531" d="M331 239V621L90 239H331ZM486 199H375V45H436V0H331V45V199H69L20 200L44 239L331 685H375V239H486V199Z" />
<glyph unicode="5" glyph-name="five" horiz-adv-x="531" d="M480 220Q480 117 419 55Q358 -9 260 -9Q174 -9 115 47L152 73Q193 33 261 33Q337 33 383 85Q430 138 430 219Q430 295 386 344Q341 392 268 392Q226 392 188 372Q150 351 119 308Q110 317 101 322Q96
325 90 328L79 332L110 679H440V629H394H152L127 367Q161 402 199 417Q242 434 280 434Q366 434 423 373Q480 311 480 220Z" />
<glyph unicode="6" glyph-name="six" horiz-adv-x="531" d="M427 212Q427 293 388 341T282 389Q238 389 191 361Q149 335 115 295V278Q115 156 161 95Q208 33 277 33T386 82Q427 132 427 212ZM477 216Q477 115 422 54Q366 -9 278 -9Q175 -9 121 68Q65 147 65 322Q65
499 123 594Q182 690 288 690Q361 690 411 642L383 608Q350 648 293 648Q196 648 156 563Q136 521 126 467T115 344Q130 361 146 375T182 400Q234 431 289 431Q371 431 424 371Q477 310 477 216Z" />
<glyph unicode="7" glyph-name="seven" horiz-adv-x="531" d="M460 634Q413 572 379 504T321 357Q297 279 286 202T274 45H354V0H222V45Q222 47 224 67T230 124T239 200T252 282T269 355Q316 512 409 629H110V528H64V679H460V634Z" />
<glyph unicode="8" glyph-name="eight" horiz-adv-x="531" d="M438 190Q438 257 391 298Q344 338 266 338Q186 338 140 299Q93 258 93 191Q93 120 140 76Q186 33 265 33Q343 33 390 76Q438 119 438 190ZM419 513Q419 572 377 610Q333 648 269 648Q200 648 156
610T112 511Q112 449 153 414Q195 378 265 378Q336 378 377 413Q419 449 419 513ZM488 187Q488 100 426 46Q363 -9 266 -9Q168 -9 106 46Q42 101 42 188Q42 251 79 297Q115 342 184 359Q128 373 97 412Q64 452 64 513Q64 590 120 640Q178 690 265 690Q350 690 409
640Q467 591 467 514Q467 455 437 415Q408 376 347 359Q422 340 455 294Q488 247 488 187Z" />
<glyph unicode="9" glyph-name="nine" horiz-adv-x="531" d="M415 385V403Q415 525 371 587Q326 648 254 648Q184 648 144 599T104 463Q104 386 143 340Q183 292 249 292Q291 292 338 319Q381 345 415 385ZM465 359Q465 187 409 89T248 -9Q170 -9 121 37L150 70Q183
33 243 33Q333 33 374 117Q414 199 415 336Q385 303 347 280Q296 250 241 250Q157 250 106 310Q53 372 53 464Q53 563 109 627Q164 690 254 690Q354 690 410 613Q465 536 465 359Z" />
<glyph unicode=":" glyph-name="colon" horiz-adv-x="250" d="M158 0H102V64H158V0ZM158 380H102V444H158V380Z" />
<glyph unicode=";" glyph-name="semicolon" horiz-adv-x="250" d="M153 -18Q153 -69 136 -97Q119 -124 88 -126V-90Q105 -90 113 -76Q121 -61 122 0H97V63H153V-18ZM158 380H102V444H158V380Z" />
<glyph unicode="&lt;" glyph-name="less" horiz-adv-x="667" d="M595 77L71 300V340L595 563V513L132 320L595 127V77Z" />
<glyph unicode="=" glyph-name="equal" horiz-adv-x="667" d="M600 273H76V317H600V273ZM600 413H76V457H600V413Z" />
<glyph unicode="&gt;" glyph-name="greater" horiz-adv-x="667" d="M596 300L72 77V127L534 320L72 513V563L596 340V300Z" />
<glyph unicode="?" glyph-name="question" horiz-adv-x="448" d="M227 0H171V64H227V0ZM406 506Q406 434 361 382Q314 329 236 329H225L213 184H189L171 376L179 379Q198 376 217 376Q270 376 306 399Q356 431 356 507Q356 563 317 604Q276 645 214 645Q154 645
116 607Q77 569 77 505H30Q30 579 78 635Q127 690 218 690Q306 690 356 633Q406 574 406 506Z" />
<glyph unicode="@" glyph-name="at" horiz-adv-x="666" d="M419 442Q419 478 396 502Q374 527 338 527Q280 527 247 472Q213 416 213 349Q213 299 239 276Q267 253 296 253Q347 253 383 317T419 442ZM607 237Q583 193 512 152Q441 110 355 110Q232 110 154 196Q77
282 77 396Q77 507 156 592Q236 678 349 678Q456 678 527 607Q597 535 597 441Q597 352 543 286T428 220Q418 220 409 234Q399 247 394 284Q378 262 350 242Q319 222 283 222Q239 222 206 256Q172 289 172 353Q172 427 217 492Q262 556 339 556Q364 556 393 540Q424
523 434 494L444 543H485L428 280Q428 277 428 275T427 270Q427 263 431 257Q437 251 444 251Q484 251 528 308Q572 366 572 443Q572 527 508 590Q445 653 351 653Q249 653 176 577Q103 503 103 393Q103 280 179 208Q256 135 350 135Q425 135 487 167Q547 198 573
237H607Z" />
<glyph unicode="A" glyph-name="A" horiz-adv-x="656" d="M450 303L329 658L207 303H450ZM680 0H455V45H540L465 258H191L118 45H119V0H-23V45H63L267 634L282 679H474V634H389L596 45H680V0Z" />
<glyph unicode="B" glyph-name="B" horiz-adv-x="563" d="M468 190Q468 261 420 296Q372 332 283 332H160V45H281Q369 45 418 82Q468 120 468 190ZM434 507Q434 565 393 600Q353 634 283 634H160V377H274Q346 377 390 412T434 507ZM524 194Q524 99 461 50T286
0L104 -1V44V45V634H17V679H286Q383 679 436 634Q490 589 490 505Q490 448 462 413Q435 377 387 360Q452 343 488 300Q524 256 524 194Z" />
<glyph unicode="C" glyph-name="C" horiz-adv-x="750" d="M719 221Q672 98 590 44Q507 -10 401 -10Q249 -10 156 86Q62 183 62 340Q62 495 156 592Q251 690 400 690Q463 690 532 661Q598 633 648 568V619H694V462H647Q630 547 558 593Q483 641 398 641Q275 641
197 557Q118 472 118 340Q118 210 198 124Q277 39 402 39Q496 39 564 87Q633 138 673 248L719 221Z" />
<glyph unicode="D" glyph-name="D" horiz-adv-x="708" d="M605 339Q605 480 527 557Q447 634 304 634H158V45H306Q452 45 529 119Q605 194 605 339ZM661 339Q661 205 581 102Q500 0 298 0H102V45V634H8V679H299Q484 679 572 585Q661 490 661 339Z" />
<glyph unicode="E" glyph-name="E" horiz-adv-x="604" d="M559 0H102V45V634H15V679H558V514H513V634H158V370H440V325H158V45H513H559V0Z" />
<glyph unicode="F" glyph-name="F" horiz-adv-x="531" d="M532 513H487V634H159V372H409V326L159 327V45V0H15V45H103V634H15V679H532V513Z" />
<glyph unicode="G" glyph-name="G" horiz-adv-x="792" d="M738 306Q736 161 644 76Q549 -10 403 -10Q249 -10 149 88Q50 185 50 340Q50 492 147 590Q244 690 390 690Q468 690 539 656Q609 621 653 562V629H698V457H653Q628 544 552 593Q477 641 391 641Q265 641
186 557Q106 471 106 340T189 124Q273 39 404 39Q509 39 588 97Q666 155 680 261H400V306H738Z" />
<glyph unicode="H" glyph-name="H" horiz-adv-x="688" d="M667 634H585V45V0H442V45H529V333H158V45V0H20V45H102V634H19V679H158V634V377H529V634H441V679H667V634Z" />
<glyph unicode="I" glyph-name="I" horiz-adv-x="281" d="M254 0H27V45H112V634V679H168V634V45H254V0ZM167 730H111V794H167V730Z" />
<glyph unicode="J" glyph-name="J" horiz-adv-x="271" d="M263 634H166V-48Q166 -132 125 -171Q85 -211 0 -211L2 -163Q61 -163 85 -139Q110 -114 110 -54V634H8V679H263V634Z" />
<glyph unicode="K" glyph-name="K" horiz-adv-x="583" d="M253 0H103V45V634H13V679H252V634H159V357V45H253V0ZM600 0H487L448 45L166 357L448 634L493 679H586V634H513L238 362L527 45H600V0Z" />
<glyph unicode="L" glyph-name="L" horiz-adv-x="510" d="M498 0H16V45H108V634H16V679H165V634H164V45H444V220H498V0Z" />
<glyph unicode="M" glyph-name="M" horiz-adv-x="854" d="M836 0H695V45V650L429 0H418L154 652V45H235V0H107V45V634H19V679H193L428 110L661 679H836V634H751V45H836V0Z" />
<glyph unicode="N" glyph-name="N" horiz-adv-x="708" d="M698 634H610V-9H557L148 618V45H244V0H101V45V634H10V679H170L268 526L366 377L465 228L563 74V634V679H698V634Z" />
<glyph unicode="O" glyph-name="O" horiz-adv-x="781" d="M678 340Q678 469 598 555Q517 641 392 641Q268 641 187 556Q106 470 106 340T187 125Q268 39 392 39Q518 39 597 124Q678 209 678 340ZM734 340Q734 188 637 90Q540 -10 392 -10T147 89Q50 189 50 340Q50
492 147 590Q244 690 392 690Q539 690 637 591Q734 491 734 340Z" />
<glyph unicode="P" glyph-name="P" horiz-adv-x="552" d="M477 473Q477 559 434 596Q390 634 297 634H162V325H297Q384 325 430 362Q477 400 477 473ZM533 479Q533 388 474 334T317 280H162V45V0H16V45H106V634H16V679H307Q413 679 473 627Q533 574 533 479Z" />
<glyph unicode="Q" glyph-name="Q" horiz-adv-x="781" d="M678 340Q678 469 598 555Q517 641 392 641Q268 641 187 556Q106 470 106 340T187 125Q268 39 392 39Q518 39 597 124Q678 209 678 340ZM734 491T734 340T637 89Q547 -2 410 -10Q418 -12 445 -24T502 -51L560
-80Q588 -93 597 -98L570 -139Q554 -129 520 -112T449 -78T379 -50T332 -38Q321 -38 310 -40T288 -45Q266 -52 245 -67L224 -37Q235 -28 248 -22T275 -11Q292 -6 320 -3Q214 20 147 89Q50 190 50 340Q50 492 147 590Q244 690 392 690Q539 690 637 591Q734 491 734
340Z" />
<glyph unicode="R" glyph-name="R" horiz-adv-x="573" d="M465 511Q465 567 427 600Q390 634 325 634H159V384H307Q382 384 423 416Q465 449 465 511ZM588 0H462L309 339H159V-1H103V634H3V679H337Q417 679 469 633T521 516Q521 450 484 405Q447 361 365 344L501
45H588V0Z" />
<glyph unicode="S" glyph-name="S" horiz-adv-x="542" d="M498 178Q498 98 435 44T280 -10Q223 -10 172 15Q146 28 126 47T89 91V0H43V233H89V209Q89 142 145 91Q202 39 281 39Q349 39 396 80Q442 120 442 184Q442 241 399 274Q355 308 249 333T94 403Q45 446
45 524Q45 594 102 642Q160 690 243 690Q269 690 294 687T342 674Q365 663 383 653T419 623Q430 611 436 602Q443 592 450 578T460 544T464 511T465 496H412V509Q412 517 410 530T403 557T389 586T367 610Q341 630 309 635T240 641Q178 641 138 607Q97 572 97 522Q97
464 141 434Q186 404 261 386Q398 353 448 306T498 178Z" />
<glyph unicode="T" glyph-name="T" horiz-adv-x="573" d="M557 545H511V634H315V0H166V45H259V634H63V465H17V679H557V545Z" />
<glyph unicode="U" glyph-name="U" horiz-adv-x="646" d="M642 634H555V203Q555 100 495 45Q436 -10 323 -10Q211 -10 151 44Q90 99 90 203V634H3V679H232V634H146V197Q146 119 192 80Q239 39 322 39Q409 39 454 78T499 195V634V679H642V634Z" />
<glyph unicode="V" glyph-name="V" horiz-adv-x="656" d="M679 634H591L356 -7H309L66 634H-22V679H108L123 634L337 74L543 634H460V679H679V634Z" />
<glyph unicode="W" glyph-name="W" horiz-adv-x="948" d="M966 634H881L696 -7H652L472 649L303 -7H257L65 634H-20V679H110L122 634L284 69L429 634L439 679H510L523 634L677 69L834 634H747V679H966V634Z" />
<glyph unicode="X" glyph-name="X" horiz-adv-x="656" d="M642 0H511L484 45H483L323 299L164 45H253V0H14V45H108L295 342L108 634H14V679H142L172 634L323 394L476 634H392V679H620V634H530L352 351L547 45H642V0Z" />
<glyph unicode="Y" glyph-name="Y" horiz-adv-x="604" d="M622 634H541L333 306V45V0H183V45H277V306L69 634H-19V679H105L133 634H134L310 355L487 634H399V679H622V634Z" />
<glyph unicode="Z" glyph-name="Z" horiz-adv-x="552" d="M521 0H27V45L443 634H94H49V679H511V635L94 45H475V175H521V0Z" />
<glyph unicode="[" glyph-name="bracketleft" horiz-adv-x="344" d="M329 -201H117V679H329V634H169V-156H329V-201Z" />
<glyph unicode="\" glyph-name="backslash" horiz-adv-x="281" d="M281 -14H234L0 679H47L281 -14Z" />
<glyph unicode="]" glyph-name="bracketright" horiz-adv-x="344" d="M228 679L227 -201H15V-156H176L175 634H15V679H228Z" />
<glyph unicode="^" glyph-name="asciicircum" horiz-adv-x="656" d="M546 428L516 401L328 626L140 401L110 428L328 690L546 428Z" />
<glyph unicode="_" glyph-name="underscore" horiz-adv-x="500" d="M500 -125H0V-75H500V-125Z" />
<glyph unicode="`" glyph-name="grave" horiz-adv-x="333" d="M240 536H202L83 691H140L240 536Z" />
<glyph unicode="a" glyph-name="a" horiz-adv-x="510" d="M369 111V198Q339 217 307 228Q272 240 237 240Q174 240 139 208T104 129Q104 90 132 62Q161 33 210 33Q252 33 295 55Q340 78 369 111ZM500 0H369V67Q330 32 285 13Q237 -7 198 -7Q134 -7 93 34Q51 76
51 133Q51 196 99 237Q148 279 228 279Q256 279 294 270Q331 261 369 240V352Q369 404 335 426Q300 449 243 449Q228 449 210 445T175 437T148 428L137 425L124 456L136 460Q147 465 165 471T204 481T245 486Q331 486 376 453T421 352V45H500V0Z" />
<glyph unicode="b" glyph-name="b" horiz-adv-x="615" d="M520 243Q520 330 469 386Q416 443 337 443Q260 443 206 386Q151 330 151 241Q151 148 204 92T335 36Q417 36 468 94Q520 153 520 243ZM573 245Q573 133 506 63T331 -7Q282 -7 238 15Q192 37 152 95V0H100V45V634H14V679H152V375Q187
435 237 461Q286 486 336 486Q440 486 506 418Q573 351 573 245Z" />
<glyph unicode="c" glyph-name="c" horiz-adv-x="510" d="M480 128Q453 60 399 23Q346 -14 275 -14Q170 -14 106 56Q41 127 41 236Q41 341 106 414Q170 486 269 486Q319 486 357 466Q396 446 420 409V443H463V293H420Q417 369 372 403Q325 439 269 439Q191 439
143 383Q94 327 94 236T144 89T276 33Q336 33 376 64Q417 96 438 146L480 128Z" />
<glyph unicode="d" glyph-name="d" horiz-adv-x="594" d="M454 239Q454 325 400 384T268 443Q189 443 138 384Q85 323 85 236Q85 153 138 94Q192 36 270 36Q351 36 402 93Q454 151 454 239ZM591 0H453V94Q415 38 369 16Q321 -7 270 -7Q170 -7 103 62Q36 132 36
236Q36 344 101 415Q167 486 267 486Q317 486 367 462Q415 437 453 375V634V679H505V45H591V0Z" />
<glyph unicode="e" glyph-name="e" horiz-adv-x="552" d="M463 270Q453 345 404 394Q354 442 277 442Q196 442 143 383Q104 341 93 270H463ZM518 225H91Q96 141 148 87Q204 28 292 28Q307 28 327 33T366 43T397 54L410 59L422 21L408 16Q393 10 372 4T327 -8T284
-14Q178 -14 109 57Q40 127 40 236Q40 344 108 415T281 486Q383 486 448 417Q512 349 518 225Z" />
<glyph unicode="f" glyph-name="f" horiz-adv-x="250" d="M323 595L277 588Q270 616 254 630Q237 645 212 645Q181 645 165 626Q148 606 148 568V473H241V428H148V45H241V0H97V45H96V428H23V473H96V558Q96 617 128 654Q161 690 213 690Q261 690 288 661Q317 632 323 595Z" />
<glyph unicode="g" glyph-name="g" horiz-adv-x="594" d="M462 236Q462 321 408 381Q352 441 276 441Q198 441 145 382Q92 321 92 236Q92 148 143 93Q196 37 276 37Q355 37 408 94Q462 152 462 236ZM601 428H514V-11Q514 -108 447 -166T274 -224Q255 -224 230
-220T188 -211T169 -206L181 -161L192 -164Q203 -166 218 -169T250 -174T279 -177Q360 -177 411 -135T462 -16V104Q429 45 378 19Q326 -7 273 -7Q174 -7 106 61Q39 129 39 232Q39 338 107 412Q176 486 274 486Q322 486 370 463Q417 439 462 370V473H601V428Z" />
<glyph unicode="h" glyph-name="h" horiz-adv-x="542" d="M536 0H408V45V356Q408 396 387 417Q366 439 326 439Q284 439 236 415Q186 391 151 357V45H229V0H101V45H99V634H13V679H151V409Q191 444 237 465T333 486Q390 486 425 453Q460 418 460 362V45H536V0Z" />
<glyph unicode="i" glyph-name="i" horiz-adv-x="250" d="M240 0H108V45H107V428H24V473H159V45H240V0ZM159 650Q159 633 147 621T119 609T91 621T79 649Q79 666 91 678T119 690T147 678T159 650Z" />
<glyph unicode="j" glyph-name="j" horiz-adv-x="240" d="M161 -59Q161 -130 121 -167Q101 -186 72 -196T4 -205V-160Q32 -162 51 -155T84 -133Q109 -105 109 -46V428H22V473H161V-59ZM161 650Q161 633 149 621T121 609T93 621T81 649Q81 666 93 678T121 690T149
678T161 650Z" />
<glyph unicode="k" glyph-name="k" horiz-adv-x="521" d="M534 0H432L152 244V45H239V0H101V45H100V634H13V679H152V261L226 310L308 366L384 419L440 458Q460 472 462 473H526V428H475L216 251L462 45H534V0Z" />
<glyph unicode="l" glyph-name="l" horiz-adv-x="240" d="M231 0H94V45V634H8V679H146V45H231V0Z" />
<glyph unicode="m" glyph-name="m" horiz-adv-x="844" d="M830 0H704V45V356Q704 395 684 417Q663 439 625 439Q583 439 537 416Q492 392 453 353V0H401V356Q401 395 381 417Q362 439 321 439Q281 439 234 415Q184 389 150 357V45H228V0H98V45V428H12V473H150V409Q189
445 232 465Q278 486 325 486Q370 486 402 465T447 401Q474 430 529 459Q582 486 627 486Q686 486 721 453Q756 418 756 362V45H830V0Z" />
<glyph unicode="n" glyph-name="n" horiz-adv-x="531" d="M528 0H401V45V356Q401 396 380 417Q359 439 320 439Q278 439 230 415Q181 390 146 357V45H223V0H94V45V428H8V473H146V409Q186 444 232 465T327 486Q383 486 418 453Q453 418 453 362V45H528V0Z" />
<glyph unicode="o" glyph-name="o" horiz-adv-x="552" d="M460 148T460 236T409 381Q357 439 277 439T146 382Q94 324 94 236T145 91Q197 33 277 33T408 90Q460 148 460 236ZM513 341T513 236T446 58Q377 -14 277 -14Q176 -14 109 58Q41 131 41 236Q41 343 108
414Q175 486 277 486Q377 486 445 414Q513 341 513 236Z" />
<glyph unicode="p" glyph-name="p" horiz-adv-x="594" d="M503 236Q503 327 451 383Q399 441 316 441Q239 441 186 385Q134 330 134 238Q134 148 187 90Q239 33 319 33Q401 33 452 90T503 236ZM551 239Q551 128 486 57T318 -14Q267 -14 219 9Q170 32 136 96V-167H222V-212H84V-167V428H4V473H136V377Q176
440 223 462Q271 486 321 486Q420 486 485 416Q551 344 551 239Z" />
<glyph unicode="q" glyph-name="q" horiz-adv-x="594" d="M459 147T459 238T408 385T278 441Q195 441 144 384Q91 325 91 237Q91 148 141 90Q192 33 273 33Q353 33 406 89Q459 147 459 238ZM596 434H508V-167V-212H372V-167H456V95Q425 35 377 10Q329 -14 278
-14Q171 -14 107 56Q42 127 42 238Q42 343 108 414Q174 486 273 486Q321 486 371 462Q420 438 456 380V479H596V434Z" />
<glyph unicode="r" glyph-name="r" horiz-adv-x="396" d="M383 436H364Q262 436 213 393T164 257V45H261V0H112V45V428H22V473H164V389Q165 391 172 403T195 432T227 458Q240 465 257 471T292 480T330 486Q347 488 364 487L383 486V436Z" />
<glyph unicode="s" glyph-name="s" horiz-adv-x="448" d="M409 127Q409 61 361 24Q311 -15 230 -15Q185 -15 149 1Q111 18 84 60V0H38V164H84Q85 99 126 62T235 25Q287 25 325 52Q363 81 363 122Q363 165 334 185Q306 206 226 220Q140 235 103 263Q64 291 64 353Q64
414 107 450T213 486Q254 486 286 471Q319 455 344 422V459H388V324H344Q343 376 306 409Q269 443 214 443Q167 443 139 417Q111 392 111 355Q111 316 137 298Q163 281 238 267Q344 247 376 216Q409 184 409 127Z" />
<glyph unicode="t" glyph-name="t" horiz-adv-x="260" d="M238 0L172 -11Q129 -11 108 11T87 78V428H3V473H87V579L139 580V473H238V428H139V88Q139 59 149 48Q159 36 182 36L238 45V0Z" />
<glyph unicode="u" glyph-name="u" horiz-adv-x="542" d="M534 0H400V67Q383 51 362 39T318 15Q271 -7 217 -7Q160 -7 129 24Q96 55 96 111V428H13V473H148V120Q148 83 168 61Q189 40 226 40Q271 40 318 65T400 125V428V473H452V45H534V0Z" />
<glyph unicode="v" glyph-name="v" horiz-adv-x="521" d="M524 428H451L291 -7H243L76 428H-2V473H194V428H129L266 59L402 428L419 473H524V428Z" />
<glyph unicode="w" glyph-name="w" horiz-adv-x="750" d="M749 428H682L541 -7H493L370 408L251 -7H200L65 428H3V473H101L114 428L223 72L336 428H281V473H460V428H407L516 82L632 428L645 473H749V428Z" />
<glyph unicode="x" glyph-name="x" horiz-adv-x="531" d="M513 0H432L398 45H396L263 208L140 45H202V0H47L82 45L234 244L87 428H26V473H202V428H146L263 281L378 428H327V473H501V428H437L293 244L454 45H513V0Z" />
<glyph unicode="y" glyph-name="y" horiz-adv-x="531" d="M530 428H458L216 -212H170L250 13L80 428H2V473H114L131 428L275 76L408 428H333V473H530V428Z" />
<glyph unicode="z" glyph-name="z" horiz-adv-x="479" d="M436 429L102 45H393V173H435V0H45V45L378 428H110H69V473H436V429Z" />
<glyph unicode="{" glyph-name="braceleft" horiz-adv-x="333" d="M285 -201H269Q197 -201 170 -162Q142 -124 142 -67V70Q142 134 120 173Q97 212 48 212V266Q98 266 119 304Q142 344 142 408V545Q142 601 169 640Q197 679 269 679H285V632Q238 632 217 611Q196
588 196 516V399Q196 328 170 290Q145 251 103 239Q144 227 170 189Q196 149 196 79V-38Q196 -111 217 -132Q238 -154 285 -154V-201Z" />
<glyph unicode="|" glyph-name="bar" horiz-adv-x="496" d="M274 -224H222V679H274V-224Z" />
<glyph unicode="}" glyph-name="braceright" horiz-adv-x="333" d="M285 212Q235 212 214 174Q191 134 191 70V-67Q191 -123 164 -162Q135 -201 64 -201H48V-154Q95 -154 116 -133Q137 -111 137 -38V79Q137 150 163 188Q188 227 230 239Q189 251 163 289Q137 329
137 399V516Q137 589 116 610Q95 632 48 632V679H64Q136 679 163 640Q191 602 191 545V408Q191 344 213 305T285 266V212Z" />
<glyph unicode="~" glyph-name="asciitilde" horiz-adv-x="656" d="M590 339Q582 332 569 323T536 303Q498 280 450 280Q400 280 324 317Q246 355 207 355Q169 355 136 337Q101 319 66 291V345Q74 352 87 361T119 381Q157 404 206 404Q254 404 331 367Q407 329
448 329Q485 329 517 347Q533 356 551 368L589 393L590 339Z" />
</font>
</defs>
</svg>
