<svg width="256" height="256" viewBox="0 0 256 256" fill="none" xmlns="http://www.w3.org/2000/svg">
<rect x="3.05176e-05" y="1.52588e-05" width="256" height="256" fill="#202B2F"/>
<rect x="3.05176e-05" y="1.52588e-05" width="256" height="256" fill="url(#paint0_radial_45:43)"/>
<rect x="3.05176e-05" y="1.52588e-05" width="256" height="256" fill="url(#paint1_radial_45:43)"/>
<rect x="3.05176e-05" y="1.52588e-05" width="256" height="256" fill="url(#paint2_radial_45:43)"/>
<rect x="3.05176e-05" y="1.52588e-05" width="256" height="256" fill="url(#paint3_radial_45:43)"/>
<path fill-rule="evenodd" clip-rule="evenodd" d="M31 0H32V32H46.3873C45.9983 32.331 45.6114 32.6644 45.2265 33L32 33V46.3873C31.6643 46.7818 31.3309 47.1784 31 47.5771V33H8.4363e-06V32L31 32V0ZM31 53.9962C28.5452 57.209 26.2463 60.5474 24.1147 64C23.9096 64.3323 23.706 64.6656 23.504 65C17.7304 74.5558 13.2307 84.9676 10.2399 96C10.1497 96.3328 10.0608 96.6661 9.97337 97C7.38053 106.899 6.00001 117.288 6.00001 128C6.00001 128.334 6.00135 128.667 6.00402 129C6.09008 139.719 7.55854 150.109 10.2399 160C10.3304 160.334 10.4223 160.667 10.5156 161C13.612 172.047 18.2246 182.459 24.1147 192C24.3212 192.334 24.5292 192.668 24.7388 193C26.6931 196.098 28.7829 199.102 31 202.004C31.3305 202.436 31.6639 202.867 32 203.295C38.0487 210.996 45.0041 217.951 52.7054 224C53.1334 224.336 53.5636 224.669 53.9962 225C56.8978 227.217 59.9019 229.307 63 231.261C63.3323 231.471 63.6656 231.679 64 231.885C73.5405 237.775 83.9534 242.388 95 245.484C95.3328 245.578 95.6661 245.67 96 245.76C105.891 248.441 116.281 249.91 127 249.996C127.333 249.999 127.666 250 128 250C138.712 250 149.101 248.619 159 246.027C159.334 245.939 159.667 245.85 160 245.76C171.032 242.769 181.444 238.27 191 232.496C191.334 232.294 191.668 232.09 192 231.885C195.453 229.754 198.791 227.455 202.004 225C202.436 224.669 202.867 224.336 203.295 224C210.575 218.282 217.189 211.754 223 204.551C223.336 204.134 223.669 203.716 224 203.295C226.591 199.996 229.016 196.56 231.261 193C231.471 192.668 231.679 192.334 231.885 192C237.775 182.459 242.388 172.047 245.484 161C245.578 160.667 245.67 160.334 245.76 160C248.441 150.109 249.91 139.719 249.996 129C249.999 128.667 250 128.334 250 128C250 117.288 248.619 106.899 246.027 97C245.939 96.6661 245.85 96.3328 245.76 96C242.769 84.9676 238.27 74.5558 232.496 65C232.294 64.6656 232.09 64.3323 231.885 64C229.467 60.0825 226.833 56.3122 224 52.7054C223.669 52.2844 223.336 51.8657 223 51.4492C217.525 44.6629 211.337 38.4753 204.551 33C204.134 32.664 203.716 32.3306 203.295 32C199.688 29.1672 195.917 26.5333 192 24.1147C191.668 23.9096 191.334 23.706 191 23.5039C181.444 17.7304 171.032 13.2307 160 10.2399C159.667 10.1497 159.334 10.0608 159 9.97336C149.101 7.38053 138.712 6 128 6C127.666 6 127.333 6.00134 127 6.00401C116.281 6.09007 105.891 7.55853 96 10.2399C95.6661 10.3304 95.3328 10.4223 95 10.5156C83.9534 13.612 73.5405 18.2246 64 24.1147C63.6656 24.3212 63.3323 24.5292 63 24.7388C59.44 26.9844 56.0043 29.409 52.7054 32C52.2844 32.3306 51.8657 32.664 51.4492 33C44.2464 38.8113 37.7181 45.4251 32 52.7054C31.6639 53.1334 31.3305 53.5637 31 53.9962ZM63 20.0382C63.3324 19.8377 63.6657 19.6387 64 19.4412V0H63V20.0382ZM95 6.36556C95.3328 6.27549 95.6661 6.18675 96 6.09934V0H95V6.36556ZM127 2.00389C127.333 2.0013 127.666 2 128 2V0H127V2.00389ZM159 5.84196C159.334 5.92642 159.667 6.01222 160 6.09934V0H159V5.84196ZM191 18.8566C191.334 19.0499 191.668 19.2448 192 19.4412V0H191V18.8566ZM209.613 32C210.002 32.331 210.389 32.6644 210.774 33L223 33V45.2265C223.336 45.6114 223.669 45.9983 224 46.3873V33H256V32L224 32V0H223V32L209.613 32ZM236.559 64C236.755 64.3324 236.95 64.6657 237.143 65H256V64H236.559ZM249.901 96C249.988 96.3328 250.074 96.6661 250.158 97H256V96H249.901ZM254 128C254 128.334 253.999 128.667 253.996 129H256V128H254ZM249.901 160C249.813 160.334 249.725 160.667 249.634 161H256V160H249.901ZM236.559 192C236.361 192.334 236.162 192.668 235.962 193H256V192H236.559ZM224 209.613C223.669 210.002 223.336 210.389 223 210.774V224H209.613C209.218 224.336 208.822 224.669 208.423 225H223V256H224V225H256V224H224V209.613ZM192 236.559C191.668 236.755 191.334 236.95 191 237.143V256H192V236.559ZM160 249.901C159.667 249.988 159.334 250.074 159 250.158V256H160V249.901ZM128 254C127.666 254 127.333 253.999 127 253.996V256H128V254ZM96 249.901C95.6661 249.813 95.3328 249.725 95 249.634V256H96V249.901ZM64 236.559C63.6657 236.361 63.3324 236.162 63 235.962V256H64V236.559ZM47.5771 225C47.1784 224.669 46.7818 224.336 46.3873 224H32V209.613C31.6643 209.218 31.3309 208.822 31 208.423V224H0V225H31V256H32V225H47.5771ZM20.0383 193C19.8377 192.668 19.6387 192.334 19.4412 192H0V193H20.0383ZM6.36557 161C6.2755 160.667 6.18675 160.334 6.09935 160H2.84124e-06L2.79753e-06 161H6.36557ZM2.00389 129C2.00131 128.667 2.00001 128.334 2.00001 128L4.24001e-06 128L4.19629e-06 129H2.00389ZM5.84197 97C5.92643 96.6661 6.01223 96.3328 6.09935 96H5.63877e-06L5.59506e-06 97H5.84197ZM18.8566 65C19.05 64.6657 19.2448 64.3323 19.4412 64H8.4363e-06V65H18.8566ZM128 10C62.8304 10 10 62.8304 10 128C10 193.17 62.8304 246 128 246C193.17 246 246 193.17 246 128C246 62.8304 193.17 10 128 10Z" fill="#29373B"/>
<path d="M104.696 60C111.972 56.9594 119.963 55.2794 128.348 55.2794C136.396 55.2794 144.082 56.8274 151.121 59.6409M92.1739 47.4986C102.984 41.8408 115.291 38.6397 128.348 38.6397C141.048 38.6397 153.039 41.6684 163.633 47.0407M80 35.2251C94.1489 26.8251 110.683 22 128.348 22C145.724 22 162.006 26.6687 176 34.8161" stroke="#29373B" stroke-width="4"/>
<path fill-rule="evenodd" clip-rule="evenodd" d="M64.9619 33C65.4692 32.6627 65.9794 32.3293 66.4924 32H95V18.8493C95.3327 18.7489 95.666 18.6499 96 18.5524V32L127 32V14.0043C127.333 14.0014 127.666 14 128 14L128 32L159 32V18.2656C159.334 18.3597 159.667 18.4553 160 18.5525V32H189.508C190.346 32.5383 191.177 33.0872 192 33.6466V64L222.353 64C222.913 64.8231 223.462 65.654 224 66.4924V75.9981C223.683 75.5757 223.349 75.1664 223 74.7709V65H192V68H191V65H160V68H159V65H128V68H127V65H96V68H95V65H64V68H63V65H32.9747C33.1969 64.6654 33.4209 64.3321 33.6466 64L63 64V34.334C63.3321 34.1032 63.6654 33.874 64 33.6466V64H95V33H64.9619ZM32 75.998V66.4923C31.6625 67.0181 31.3291 67.5468 31 68.0784V77.4591C31.3121 76.9568 31.6459 76.4693 32 75.998ZM28 96H18.5525C18.4553 96.3327 18.3597 96.666 18.2655 97H28V96ZM28 128L14 128C14 128.334 14.0014 128.667 14.0043 129H28V128ZM28 160H18.5524C18.6499 160.334 18.7489 160.667 18.8493 161H28V160ZM31 178.541V187.922C31.3291 188.453 31.6625 188.982 32 189.508V180.002C31.6459 179.531 31.3121 179.043 31 178.541ZM63 188V192H33.6466C33.874 192.335 34.1032 192.668 34.334 193H63V221.666C63.3321 221.897 63.6654 222.126 64 222.353V193H95V224H66.4923C67.0181 224.338 67.5468 224.671 68.0784 225H95V237.151C95.3327 237.251 95.666 237.35 96 237.448V225H127V241.996C127.333 241.999 127.666 242 128 242L128 225H159V237.734C159.334 237.64 159.667 237.545 160 237.448V225H187.922C188.453 224.671 188.982 224.338 189.508 224H160V193H191V223.025C191.335 222.803 191.668 222.579 192 222.353V193H221.666C221.897 192.668 222.126 192.335 222.353 192H192V188H191V192H160V188H159V192H128V188H127V192H96V188H95V192H64V188H63ZM223 181.229V191.038C223.337 190.531 223.671 190.021 224 189.508V180.002C223.683 180.424 223.349 180.834 223 181.229ZM228 161H237.151C237.251 160.667 237.35 160.334 237.448 160H228V161ZM228 129H241.996C241.999 128.667 242 128.334 242 128H228V129ZM228 97H237.734C237.64 96.666 237.545 96.3327 237.448 96H228V97ZM96 33V64H127V33H96ZM128 33V64L159 64V33L128 33ZM160 33V64H191V33H160ZM159 224V193H128V224H159ZM127 224V193H96V224H127Z" fill="#29373B" fill-opacity="0.1"/>
<path fill-rule="evenodd" clip-rule="evenodd" d="M190.793 64.1892L208.1 46.8826C208.574 47.351 209.044 47.8236 209.51 48.3003L192.207 65.6034L190.793 64.1892ZM203.164 202L209.19 208.026C208.722 208.501 208.25 208.971 207.774 209.438L201.043 202.707L201.75 202H203.164ZM52.9821 202L46.8824 208.1C47.3509 208.574 47.8234 209.044 48.3001 209.51L55.1035 202.707L54.3964 202H52.9821ZM212.019 210.854C211.55 211.329 211.078 211.8 210.602 212.267L212.572 214.237L213.987 212.822L212.019 210.854ZM45.4715 212.339C44.995 211.873 44.5225 211.402 44.0539 210.928L41.4526 213.53L42.8668 214.944L45.4715 212.339ZM63.9392 65.6034L46.5619 48.2261C47.0285 47.7499 47.4992 47.2778 47.974 46.8098L65.3534 64.1892L63.9392 65.6034ZM213.28 41.7026L210.928 44.0541C211.402 44.5226 211.873 44.9952 212.339 45.4717L214.694 43.1168L213.28 41.7026ZM43.7334 45.3976C44.2001 44.9215 44.6708 44.4494 45.1455 43.9813L43.9275 42.7633L42.5133 44.1775L43.7334 45.3976Z" fill="#29373B"/>
<path fill-rule="evenodd" clip-rule="evenodd" d="M207.028 72C216.401 72 224 79.1634 224 88L224 168C224 176.837 216.401 184 207.028 184H48.9724C39.5988 184 32 176.837 32 168V88C32 79.1634 39.5988 72 48.9724 72H207.028ZM169.204 96.7202H85.8757C68.631 96.7202 54.6514 110.7 54.6514 127.945C54.6514 145.189 68.631 159.169 85.8757 159.169C103.12 159.169 117.1 145.189 117.1 127.945C117.1 122.257 115.58 116.925 112.923 112.332H142.157C139.5 116.925 137.979 122.257 137.979 127.945C137.979 145.189 151.959 159.169 169.204 159.169C186.448 159.169 200.428 145.189 200.428 127.945C200.428 110.7 186.448 96.7203 169.204 96.7203V96.7202ZM70.2636 129.115C70.2636 137.738 77.2534 144.728 85.8758 144.728C94.4981 144.728 101.488 137.738 101.488 129.115C101.488 120.493 94.4981 113.503 85.8758 113.503C77.2534 113.503 70.2636 120.493 70.2636 129.115ZM153.592 127.945C153.592 136.567 160.581 143.557 169.204 143.557C177.826 143.557 184.816 136.567 184.816 127.945C184.816 119.322 177.826 112.332 169.204 112.332C160.581 112.332 153.592 119.322 153.592 127.945Z" fill="url(#paint4_radial_45:43)"/>
<path d="M42 193H214M80.7943 205H173.22M101.688 217H152.326M113.617 229H140.397" stroke="#29373B" stroke-width="4"/>
<defs>
<radialGradient id="paint0_radial_45:43" cx="0" cy="0" r="1" gradientUnits="userSpaceOnUse" gradientTransform="rotate(44.9443) scale(361.687 366.105)">
<stop stop-color="#37484E"/>
<stop offset="1" stop-color="#050C0E"/>
</radialGradient>
<radialGradient id="paint1_radial_45:43" cx="0" cy="0" r="1" gradientUnits="userSpaceOnUse" gradientTransform="rotate(45) scale(362.039)">
<stop stop-color="#FA00FF"/>
<stop offset="1" stop-color="#FF002E"/>
</radialGradient>
<radialGradient id="paint2_radial_45:43" cx="0" cy="0" r="1" gradientUnits="userSpaceOnUse" gradientTransform="rotate(45) scale(362.039)">
<stop stop-color="white"/>
<stop offset="1" stop-color="#A4B3BE"/>
</radialGradient>
<radialGradient id="paint3_radial_45:43" cx="0" cy="0" r="1" gradientUnits="userSpaceOnUse" gradientTransform="rotate(45) scale(362.039)">
<stop stop-color="white"/>
<stop offset="1" stop-color="#D6E0E8"/>
</radialGradient>
<radialGradient id="paint4_radial_45:43" cx="0" cy="0" r="1" gradientUnits="userSpaceOnUse" gradientTransform="translate(36 72) rotate(30.7841) scale(218.833 198.329)">
<stop stop-color="#37484E"/>
<stop offset="1" stop-color="#050C0E"/>
</radialGradient>
</defs>
</svg>
