<?xml version="1.0" encoding="UTF-8" standalone="no"?>
<svg width="100px" height="100px" viewBox="0 0 100 100" version="1.1" xmlns="http://www.w3.org/2000/svg" xmlns:xlink="http://www.w3.org/1999/xlink" xmlns:sketch="http://www.bohemiancoding.com/sketch/ns">
    <!-- Generator: Sketch 3.0.4 (8053) - http://www.bohemiancoding.com/sketch -->
    <title>iPad</title>
    <desc>Created with Sketch.</desc>
    <defs>
        <linearGradient x1="50%" y1="0%" x2="50%" y2="100%" id="linearGradient-1">
            <stop stop-color="#2174A0" offset="0%"></stop>
            <stop stop-color="#5F2C99" offset="100%"></stop>
        </linearGradient>
    </defs>
    <g id="Page-1" stroke="none" stroke-width="1" fill="none" fill-rule="evenodd" sketch:type="MSPage">
        <g id="iPad" sketch:type="MSArtboardGroup">
            <rect id="Background" fill="url(#linearGradient-1)" sketch:type="MSShapeGroup" x="0" y="0" width="100" height="100"></rect>
            <path d="M56.99617,46.5966899 C56.160798,49.9430925 51.0050111,48.2428549 49.3324973,47.8260047 L50.8075739,41.9114511 C52.4800877,42.3283013 57.8663492,43.1061594 56.99617,46.5966899 L56.99617,46.5966899 Z M56.079778,56.1411829 C55.1643692,59.8198859 48.9696769,57.8311958 46.9612837,57.3325486 L48.5881746,50.8112027 C50.5965677,51.312406 57.03668,52.3045881 56.079778,56.1411829 L56.079778,56.1411829 Z M62.8490835,46.649976 C63.3867264,43.0571992 60.6509224,41.1259244 56.9102337,39.8376214 L58.1235682,34.9708954 L55.1608294,34.2325593 L53.979549,38.9710842 C53.2006157,38.7770129 52.4006408,38.5939528 51.6057789,38.4124656 L52.795712,33.6428736 L49.8345464,32.9045375 L48.6202286,37.7694939 C47.9756078,37.6228098 47.342786,37.4776987 46.7284493,37.3249192 L46.7317924,37.3097789 L42.6459817,36.2896757 L41.8578059,39.453608 C41.8578059,39.453608 44.0559669,39.9573675 44.0095574,39.9886312 C45.2095197,40.2880949 45.4264254,41.0820765 45.390045,41.711481 L44.0077875,47.2557851 C44.0905774,47.2768243 44.1977521,47.3071049 44.3159391,47.3544921 C44.2172205,47.3299137 44.1116191,47.3029757 44.0028713,47.2768243 L42.0652724,55.0434119 C41.918571,55.4079592 41.5463113,55.9545835 40.7075962,55.7471415 C40.7370938,55.7902029 38.5540749,55.2095621 38.5540749,55.2095621 L37.0833246,58.600599 L40.9388574,59.561714 C41.6560423,59.7414315 42.3590684,59.929604 43.0508854,60.1067653 L41.8247686,65.0291369 L44.7841643,65.7672763 L45.9984821,60.8972076 C46.806913,61.1166439 47.5917457,61.3191701 48.3596665,61.5098988 L47.1494784,66.3571586 L50.1122172,67.0954947 L51.338334,62.1823646 C56.390486,63.1383673 60.1893833,62.7527809 61.7883498,58.1837488 C63.0770016,54.5050459 61.7242417,52.3830425 59.0661148,50.9993751 C61.0019439,50.5530308 62.4601085,49.2798681 62.8490835,46.649976 L62.8490835,46.649976 Z M76.1918304,56.531685 C72.5852574,70.9957968 57.9336037,79.798611 43.466015,76.1916771 C29.0043258,72.5855297 20.2004726,57.9348185 23.8088155,43.4712966 C27.4136186,29.0054152 42.0652724,20.2018144 56.5287314,23.8079619 C70.9955335,27.4141093 79.7984034,42.0665901 76.1918304,56.531685 L76.1918304,56.531685 Z" id="Bitcoin" fill="#FFFFFF" sketch:type="MSShapeGroup"></path>
        </g>
    </g>
</svg>