<?xml version="1.0" encoding="UTF-8"?>
<svg width="200px" height="200px" viewBox="0 0 200 200" version="1.1" xmlns="http://www.w3.org/2000/svg" xmlns:xlink="http://www.w3.org/1999/xlink">
    <g>
        <rect fill="white" width="200" height="200"></rect>
        <g id="Artboard" fill-rule="nonzero" fill="#FF004D">
            <path d="M60.7395573,115.016503 L59.8474878,106.095808 L139.985065,106.095808 L139.092995,115.016503 L60.7395573,115.016503 Z M61.185592,120.36892 L63.564444,146.982327 C64.159157,153.821527 70.2549653,159.4713 77.242843,159.4713 L122.441031,159.4713 C129.428909,159.4713 135.524717,153.821527 136.11943,146.982327 L138.498282,120.36892 L61.185592,120.36892 L61.185592,120.36892 Z M58.6580618,91.9713745 L59.5501313,100.89207 L140.579778,100.89207 L141.471847,91.9713745 L58.6580618,91.9713745 Z M58.212027,86.6189575 L55.238462,54.801812 L55.238462,54.6531337 L144.891447,54.6531337 L144.891447,54.801812 L141.917882,86.6189575 L58.212027,86.6189575 Z M49.5886885,44.8403692 C48.9939755,42.4615172 50.6294363,40.5287 53.0082883,40.5287 L146.824264,40.5287 C149.203116,40.5287 150.838577,42.4615172 150.392542,44.8403692 L150.392542,44.9890475 C149.946507,47.5165777 147.567655,49.449395 145.188803,49.449395 L54.9411055,49.449395 C52.4135753,49.449395 50.0347233,47.5165777 49.5886885,45.1377257 L49.5886885,44.8403692 Z" id="Shape"></path>
        </g>
    </g>
</svg>