<?xml version="1.0" encoding="UTF-8" standalone="no"?>
<svg width="100px" height="100px" viewBox="0 0 100 100" version="1.1" xmlns="http://www.w3.org/2000/svg" xmlns:xlink="http://www.w3.org/1999/xlink">
    <!-- Generator: Sketch 3.6.1 (26313) - http://www.bohemiancoding.com/sketch -->
    <title>60pt</title>
    <desc>Created with Sketch.</desc>
    <defs></defs>
    <g id="Page-1" stroke="none" stroke-width="1" fill="none" fill-rule="evenodd">
        <g id="60pt">
            <g id="Glyph">
                <rect id="Rectangle-1" fill="#222222" x="0" y="2.84217094e-14" width="100" height="100"></rect>
                <path d="M34.3384165,68.7221657 C34.434938,71.2401193 34.4978869,72.8914772 34.4978869,72.8914772 C34.4978869,74.0287529 35.0791145,75.6906022 36.3401896,75.6906022 C40.4129795,76.479561 44.0514224,76.5236252 44.0514224,76.5236252 L56.1879587,76.5236252 C56.1879587,76.5236252 59.8264016,76.479561 63.8991915,75.6906022 C65.1602666,75.6906022 65.7414942,74.0287529 65.7414942,72.8914772 C65.7414942,72.8914772 65.8065414,71.1939568 65.9051612,68.6151527 C62.6318216,69.7461335 55.9802275,70.0335998 50.1196906,70.0335998 C44.4417052,70.0335998 38.0125304,69.7671164 34.3384165,68.7221657" id="Fill-1" fill="#FFFFFF"></path>
                <path d="M56.5824381,42.9509108 L51.7563604,60.9018215 L49.731506,60.3562649 L54.4107031,42.9509108 L33.3333333,42.9509108 C33.4004788,44.3399818 33.929249,58.0502391 34.2502881,66.4287296 C35.2301917,67.0729061 41.1557758,67.9353052 50.1196906,67.9353052 C59.0857036,67.9353052 65.013386,67.0708078 65.989093,66.4266313 C66.3101321,58.0481408 66.8389024,44.3399818 66.9060478,42.9509108 L56.5824381,42.9509108" id="Fill-2" fill="#FFFFFF"></path>
                <path id="Fill-3" fill="#FFFFFF"></path>
                <path d="M54.4274895,42.9509108 L59.2535672,25 L61.2784215,25.5455566 L56.5971261,42.9509108" id="Fill-4" fill="#FFFFFF"></path>
                <path d="M63.6620842,34.2555777 C63.6620842,37.1533226 61.3140925,39.5013143 58.4163476,39.5013143 C55.5186027,39.5013143 53.170611,37.1533226 53.170611,34.2555777 C53.170611,31.3578328 55.5186027,29.0098411 58.4163476,29.0098411 C61.3140925,29.0098411 63.6620842,31.3578328 63.6620842,34.2555777" id="Fill-5" fill="#FFFFFF"></path>
            </g>
        </g>
    </g>
</svg>