<svg xmlns="http://www.w3.org/2000/svg" width="256" height="256" viewBox="0 0 256 256">
  <path fill="#F6291D" fill-rule="evenodd" d="M40,174.849967 L83.1413262,174.849967 C86.0174146,193.166109 104.48493,204.06497 129.310114,204.06497 C153.681179,204.06497 170.332217,192.25787 170.332217,176.212324 C170.332217,161.831882 160.038848,153.657736 132.640322,148.056932 L109.631614,143.51574 C66.0361688,134.887475 44.6925653,113.997991 44.6925653,81.4527796 C44.6925653,41.490288 79.5083724,15 128.099129,15 C179.111855,15 211.202947,41.6416611 211.959812,81.7555258 L168.818486,81.7555258 C167.304756,63.1366376 151.107837,51.9350301 128.099129,51.9350301 C105.544541,51.9350301 90.4072338,62.5311453 90.4072338,78.5766912 C90.4072338,92.0488948 101.003349,100.374414 126.736772,105.521098 L149.896852,110.213664 C196.06564,119.447421 216.198259,138.066309 216.198259,171.217013 C216.198259,213.90422 182.744809,241 128.099129,241 C76.0267917,241 41.3623577,216.023443 40,174.849967 Z"/>
</svg>
